<svg width="105" height="98" viewBox="0 0 105 98" fill="none" xmlns="http://www.w3.org/2000/svg">
<path d="M43.8347 6.08023C46.6151 -2.02672 58.0807 -2.02675 60.8611 6.08021L67.3256 24.9288C68.5731 28.566 71.9936 31.009 75.8388 31.009H95.679C104.515 31.009 108.06 42.4129 100.782 47.4226L85.5828 57.8841C82.2566 60.1735 80.8624 64.398 82.1724 68.2175L88.1728 85.7128C90.9875 93.9197 81.7036 100.965 74.5568 96.0462L57.4507 84.2721C54.3776 82.1568 50.3182 82.1569 47.2451 84.2721L30.139 96.0462C22.9922 100.965 13.7083 93.9198 16.523 85.7128L22.5234 68.2175C23.8334 64.398 22.4392 60.1735 19.113 57.8841L3.91405 47.4226C-3.36435 42.4128 0.180994 31.009 9.01687 31.009H28.857C32.7022 31.009 36.1227 28.5661 37.3702 24.9288L43.8347 6.08023Z" fill="#159ED9"/>
</svg>
